<?xml version="1.0" encoding="utf-8"?>
<!-- Generator: Adobe Illustrator 23.0.3, SVG Export Plug-In . SVG Version: 6.00 Build 0)  -->
<svg version="1.1" id="Laag_1" xmlns="http://www.w3.org/2000/svg" xmlns:xlink="http://www.w3.org/1999/xlink" x="0px" y="0px"
	 viewBox="0 0 565.6 192.6" style="enable-background:new 0 0 565.6 192.6;" xml:space="preserve">
<style type="text/css">
	.st0{fill:#FFFFFF;}
</style>
<g>
	<path class="st0" d="M162.1,96.3c0.1,37.4-30.2,67.9-67.3,68.1c-37.6,0.1-68.1-30.2-68.1-67.7C26.6,59,56.9,28.4,94.2,28.4
		C131.8,28.3,162.1,58.6,162.1,96.3z M103,95c9.4,1.6,15.8,6.7,22,12.4c1.5,1.4,1.6,2.5,0.8,4.3c-3.1,7.6-3.6,7.9-13.3,7.8
		c-11.2-0.1-11.3,0-9,11.5c0.3,1.3,0.6,2.6,1,3.8c3.9,10.5,20.5,14.8,29,7.6c19.4-16.3,26.4-44.1,17.2-68.1
		c-9.2-23.9-32.9-39.7-58-38.9c-25.3,1-47.5,17.5-55.6,41.6c-8.1,24-0.3,50.6,19.5,66.6c5.9,4.8,12.4,8.5,19.9,10.5
		c0.1-0.7,0.2-1.1,0.2-1.4c-0.1-0.8-0.2-1.7-0.3-2.5c-3.2-16.1-1.5-31.5,6.3-46c1.9-3.5,1.1-4.4-2.3-5.6
		c-18.9-6.9-25.8-29.7-14.1-45.7c1.4-1.9,2.9-4.7,5.9-2.8c3.3,2.1,1.4,4.5-0.3,6.7c-3.7,5.1-4.9,10.9-4.2,17
		c0.3,2.6,1.1,3.9,4.2,2.7c4.2-1.6,7.7-3.8,10.6-7.2c1.5-1.8,3.3-3.2,5.5-1.3c2.5,2,1.2,4.1-0.4,6c-3.5,4.2-7.9,7.1-13,9
		c-1.3,0.5-2.7,0.5-1.4,2.6c4.3,7.2,17.2,9.7,23.8,4.5c10.2-8.1,11.5-22.2,3.1-33c-1.6-2.1-3.6-4.2-0.8-6.4c2.6-2.1,4.6,0,6.3,2
		c3.2,3.9,5.5,8.3,6.3,13.4c0.5,2.7,0.3,7.5,1.4,7.8c3,0.8,4.9-2.6,7.1-4.5c1.6-1.4,3.3-1.7,4.9-0.2c1.8,1.8,1.3,3.6-0.2,5.3
		c-2,2.2-4.2,4.8-7,5.5C110.3,82.1,107.8,89.1,103,95z M116.1,152.5c-9.9-2.3-16.1-8-18.8-17.6c-2-7.2-1.7-14.5-0.5-21.7
		c0.4-2.4,1.5-2.8,3.8-2.1c4.7,1.3,9.5,1.7,14.3,1.5c0.9,0,2.1,0.3,2.7-0.8c0.6-1.2-0.5-1.8-1.1-2.4c-6.2-6.1-14-7.8-22.3-8.7
		c-2-0.2-2.4,1.4-3.2,2.6c-9.4,15.7-11.2,32.4-7,49.9c0.5,2.1,1.4,3.2,3.9,3.5C97.7,157.9,107.1,156.3,116.1,152.5z"/>
	<path class="st0" d="M357.8,128c-16.5,14.5-31.2,15.5-42.9,3.4c-11.3-11.7-11.5-33.3-0.5-45.2c11.6-12.5,26.5-11.9,43.4,2.2
		c0-10,0-19.6,0-29.2c0-2.5,0.3-4.8,2.9-5.8c3.3-1.4,6.1,1,6.1,5.4c0.1,15.2,0,30.3,0,45.5c0,9.5-0.1,19,0,28.5
		c0,3.3-0.5,6.4-4.5,6.4c-3.9,0-4.7-3.1-4.6-6.4C357.8,131.3,357.8,129.9,357.8,128z M358.1,110.3c0-13.9-8.2-23.7-19.2-25
		c-10.9-1.2-20.3,5.4-22.6,16.6c-2,9.7-0.5,18.7,7.7,25.3c6.4,5.2,13.7,5.9,21.1,2.5C353.9,125.7,357.9,118.2,358.1,110.3z"/>
	<path class="st0" d="M280.8,88.7c0-9.5,0-18.2,0-26.8c0-1.3-0.1-2.7,0-4c0.2-2.8,1.5-4.8,4.6-4.7s4.3,2,4.3,5c0,25.3,0,50.6,0,75.9
		c0,2.9-1.2,5-4.2,5.1c-3.3,0.1-4.7-2.1-4.8-5.2c-0.1-1.8,0-3.6,0-6.8c-7,8.8-14.7,13.6-25,12.7c-7.6-0.7-14-3.9-19-9.7
		c-10.7-12.5-9.7-33.9,2-45.1C250.5,73.7,265.8,74.8,280.8,88.7z M238.7,108.1c-0.1,13.7,8.7,23.7,20.9,23.7
		c11.9,0,21.4-10,21.6-22.9c0.2-13.1-9.2-23.4-21.3-23.6C247.4,85.2,238.8,94.5,238.7,108.1z"/>
	<path class="st0" d="M497.6,110.1c9.9-9.3,19.9-18.7,29.9-28.1c2.4-2.3,4.9-6.4,8.6-2.8c3.8,3.6-0.2,6.2-2.6,8.6
		c-4.3,4.4-8.5,8.9-13.2,12.9c-3.4,2.9-4,5-0.7,8.7c6,6.9,11.4,14.3,17.1,21.4c1.9,2.4,3.3,5,0.4,7.4c-2.9,2.4-5.2,0.6-7.2-1.8
		c-5.9-7.5-11.9-14.8-17.5-22.4c-2.1-2.9-3.5-2.7-5.5-0.2c-0.7,0.9-1.5,1.8-2.5,2.5c-5.8,4-7.9,9.4-6.9,16.3
		c0.4,3.2-0.3,6.5-4.2,6.6c-4.3,0.2-4.7-3.2-4.7-6.6c0-24.3,0-48.6,0-72.9c0-3.2,0.3-6.4,4.4-6.3c4.1,0,4.6,3.1,4.6,6.3
		C497.6,76.7,497.6,93.8,497.6,110.1z"/>
	<path class="st0" d="M426.5,87.7c5.5-6.8,11.4-10.4,19.1-10.5c14.3-0.2,23.4,7.9,24,22.3c0.5,11.3,0.1,22.6,0.2,33.9
		c0,3.2-1.1,5.8-4.7,5.7s-4.3-2.9-4.3-6c0.1-10.2,0.2-20.3-0.1-30.5c-0.4-13.1-10.4-20.3-22.4-16.3c-6.6,2.2-10.5,6.9-11.6,13.7
		c-1.2,7.8-0.4,15.6-0.6,23.4c-0.1,3.7,0,7.3-0.1,11c0,2.7-1.3,4.6-4.1,4.7c-3,0.1-4.5-1.8-4.8-4.7c-0.1-1-0.1-2-0.1-3
		c0-15.3,0-30.6,0-45.9c0-1.6,0.1-3.3,0.5-4.9c0.5-2.1,2.3-2.8,4.3-2.7c2,0.1,3.5,1.1,3.9,3.2C426.2,83,426.2,84.8,426.5,87.7z"/>
	<path class="st0" d="M210.7,97.9c0,11.5,0,22.9,0,34.4c0,3.5-0.5,6.8-4.7,6.9c-4.3,0.1-4.6-3.4-4.6-6.8c0-22.9,0-45.9,0-68.8
		c0-3.4,0.3-6.9,4.6-6.9c4.1,0,4.8,3.3,4.7,6.8C210.7,74.9,210.7,86.4,210.7,97.9z"/>
	<path class="st0" d="M387.6,108.3c0-8.1,0-16.3,0-24.4c0-3.2,0.7-5.9,4.4-5.8c3.7,0,4.6,2.7,4.6,5.8c0,16.5,0,32.9,0,49.4
		c0,3.1-0.9,5.9-4.6,5.9c-3.6,0-4.5-2.6-4.5-5.9C387.6,125,387.6,116.6,387.6,108.3z"/>
	<path class="st0" d="M397.4,60.2c0,3.6-1.9,5.7-5.4,5.6c-3.2-0.1-5.1-1.8-5.2-5.3c-0.1-3.7,1.8-5.6,5.4-5.6
		C395.5,54.9,397.2,56.8,397.4,60.2z"/>
</g>
</svg>
